<?xml version="1.0" encoding="UTF-8" standalone="no"?>
<svg
   width="512"
   height="512"
   viewBox="0 0 512 512"
   version="1.1"
   xmlns="http://www.w3.org/2000/svg">
  <path
     style="fill:none;fill-rule:evenodd;stroke:#444444;stroke-width:34.3425;stroke-linecap:round;stroke-dasharray:none"
     id="path1"
     d="m 122.46014,95.635536 c 7.22175,7.338714 -6.32948,13.355444 -12.19742,12.003034 C 94.360949,103.97362 91.963968,83.548483 98.454067,71.240696 110.06333,49.224954 139.76976,46.873501 159.0524,59.626431 187.35045,78.34187 189.67012,118.4022 170.47228,144.42522 144.88457,179.1098 94.153083,181.37118 61.473036,155.65071 20.348533,123.28413 18.158605,61.748347 50.441927,22.451016 89.541355,-25.143317 161.94985,-27.255181 207.84208,11.614292 261.92447,57.42062 263.95467,140.74174 218.48442,193.2149 165.98721,253.79723 71.728122,255.74364 12.683356,203.66285 -54.407059,144.48535 -56.268367,39.27117 2.429787,-26.338664 68.280244,-99.942982 184.46163,-101.71832 256.63176,-36.397848 c 80.12252,72.518105 81.8113,199.675598 9.8648,278.402428"
     transform="matrix(1.019145,0,0,1.019145,113.8555,175.28393)" />
</svg>
